<svg viewBox="0 0 780 400" xmlns="http://www.w3.org/2000/svg" font-family="Helvetica,Arial,sans-serif">
<rect x="0" y="0" width="780" height="400" fill="#ffffff"/>
<text x="40" y="47" font-size="11" fill="#777">Wechsel zwischen Relationsstrukturen über aufeinanderfolgende Etappen; 230 Übergänge insgesamt</text>
<rect x="236.0" y="100.0" width="115.0" height="51.0" fill="#f4f4f4" rx="2"/>
<text x="293.5" y="129.5" font-size="11" fill="#9a9a9a" text-anchor="middle">–</text>
<rect x="354.0" y="100.0" width="115.0" height="51.0" fill="#e4e7f3" rx="2"/>
<text x="411.5" y="129.5" font-size="11" fill="#2b2b2b" text-anchor="middle">9</text>
<rect x="472.0" y="100.0" width="115.0" height="51.0" fill="#a9b1da" rx="2"/>
<text x="529.5" y="129.5" font-size="11" fill="#2b2b2b" text-anchor="middle">29</text>
<rect x="590.0" y="100.0" width="115.0" height="51.0" fill="#c3cae5" rx="2"/>
<text x="647.5" y="129.5" font-size="11" fill="#2b2b2b" text-anchor="middle">20</text>
<rect x="236.0" y="154.0" width="115.0" height="51.0" fill="#f6f7fb" rx="2"/>
<text x="293.5" y="183.5" font-size="11" fill="#2b2b2b" text-anchor="middle">3</text>
<rect x="354.0" y="154.0" width="115.0" height="51.0" fill="#f4f4f4" rx="2"/>
<text x="411.5" y="183.5" font-size="11" fill="#9a9a9a" text-anchor="middle">–</text>
<rect x="472.0" y="154.0" width="115.0" height="51.0" fill="#e4e7f3" rx="2"/>
<text x="529.5" y="183.5" font-size="11" fill="#2b2b2b" text-anchor="middle">9</text>
<rect x="590.0" y="154.0" width="115.0" height="51.0" fill="#dee2f1" rx="2"/>
<text x="647.5" y="183.5" font-size="11" fill="#2b2b2b" text-anchor="middle">11</text>
<rect x="236.0" y="208.0" width="115.0" height="51.0" fill="#5b6cb8" rx="2"/>
<text x="293.5" y="237.5" font-size="11" fill="#ffffff" text-anchor="middle" font-weight="bold">55</text>
<rect x="354.0" y="208.0" width="115.0" height="51.0" fill="#a6afd8" rx="2"/>
<text x="411.5" y="237.5" font-size="11" fill="#2b2b2b" text-anchor="middle">30</text>
<rect x="472.0" y="208.0" width="115.0" height="51.0" fill="#f4f4f4" rx="2"/>
<text x="529.5" y="237.5" font-size="11" fill="#9a9a9a" text-anchor="middle">–</text>
<rect x="590.0" y="208.0" width="115.0" height="51.0" fill="#b1badd" rx="2"/>
<text x="647.5" y="237.5" font-size="11" fill="#2b2b2b" text-anchor="middle">26</text>
<rect x="236.0" y="262.0" width="115.0" height="51.0" fill="#c6cce6" rx="2"/>
<text x="293.5" y="291.5" font-size="11" fill="#2b2b2b" text-anchor="middle">19</text>
<rect x="354.0" y="262.0" width="115.0" height="51.0" fill="#e7eaf5" rx="2"/>
<text x="411.5" y="291.5" font-size="11" fill="#2b2b2b" text-anchor="middle">8</text>
<rect x="472.0" y="262.0" width="115.0" height="51.0" fill="#dee2f1" rx="2"/>
<text x="529.5" y="291.5" font-size="11" fill="#2b2b2b" text-anchor="middle">11</text>
<rect x="590.0" y="262.0" width="115.0" height="51.0" fill="#f4f4f4" rx="2"/>
<text x="647.5" y="291.5" font-size="11" fill="#9a9a9a" text-anchor="middle">–</text>
<text x="293.5" y="90.0" font-size="11" fill="#555" text-anchor="middle">nach Kultur</text>
<text x="411.5" y="90.0" font-size="11" fill="#555" text-anchor="middle">nach Politik</text>
<text x="529.5" y="90.0" font-size="11" fill="#555" text-anchor="middle">nach Wirtschaft</text>
<text x="647.5" y="90.0" font-size="11" fill="#555" text-anchor="middle">nach Medien</text>
<text x="226.0" y="129.5" font-size="11" fill="#2b2b2b" text-anchor="end">von A·Kultur</text>
<text x="226.0" y="183.5" font-size="11" fill="#2b2b2b" text-anchor="end">von B·Politik</text>
<text x="226.0" y="237.5" font-size="11" fill="#2b2b2b" text-anchor="end">von C·Wirtschaft</text>
<text x="226.0" y="291.5" font-size="11" fill="#2b2b2b" text-anchor="end">von D·Medien</text>
<rect x="354.0" y="340.0" width="6.5" height="9.0" fill="#ffffff" rx="0"/>
<rect x="359.9" y="340.0" width="6.5" height="9.0" fill="#fbfbfd" rx="0"/>
<rect x="365.8" y="340.0" width="6.5" height="9.0" fill="#f7f7fb" rx="0"/>
<rect x="371.7" y="340.0" width="6.5" height="9.0" fill="#f2f4fa" rx="0"/>
<rect x="377.6" y="340.0" width="6.5" height="9.0" fill="#eef0f8" rx="0"/>
<rect x="383.5" y="340.0" width="6.5" height="9.0" fill="#eaecf6" rx="0"/>
<rect x="389.4" y="340.0" width="6.5" height="9.0" fill="#e6e8f4" rx="0"/>
<rect x="395.3" y="340.0" width="6.5" height="9.0" fill="#e2e5f2" rx="0"/>
<rect x="401.2" y="340.0" width="6.5" height="9.0" fill="#dde1f0" rx="0"/>
<rect x="407.1" y="340.0" width="6.5" height="9.0" fill="#d9ddef" rx="0"/>
<rect x="413.0" y="340.0" width="6.5" height="9.0" fill="#d5d9ed" rx="0"/>
<rect x="418.9" y="340.0" width="6.5" height="9.0" fill="#d1d6eb" rx="0"/>
<rect x="424.8" y="340.0" width="6.5" height="9.0" fill="#cdd2e9" rx="0"/>
<rect x="430.7" y="340.0" width="6.5" height="9.0" fill="#c8cee7" rx="0"/>
<rect x="436.6" y="340.0" width="6.5" height="9.0" fill="#c4cae6" rx="0"/>
<rect x="442.5" y="340.0" width="6.5" height="9.0" fill="#c0c6e4" rx="0"/>
<rect x="448.4" y="340.0" width="6.5" height="9.0" fill="#bcc3e2" rx="0"/>
<rect x="454.3" y="340.0" width="6.5" height="9.0" fill="#b8bfe0" rx="0"/>
<rect x="460.2" y="340.0" width="6.5" height="9.0" fill="#b3bbde" rx="0"/>
<rect x="466.1" y="340.0" width="6.5" height="9.0" fill="#afb7dc" rx="0"/>
<rect x="472.0" y="340.0" width="6.5" height="9.0" fill="#abb4db" rx="0"/>
<rect x="477.9" y="340.0" width="6.5" height="9.0" fill="#a7b0d9" rx="0"/>
<rect x="483.8" y="340.0" width="6.5" height="9.0" fill="#a2acd7" rx="0"/>
<rect x="489.7" y="340.0" width="6.5" height="9.0" fill="#9ea8d5" rx="0"/>
<rect x="495.6" y="340.0" width="6.5" height="9.0" fill="#9aa5d3" rx="0"/>
<rect x="501.5" y="340.0" width="6.5" height="9.0" fill="#96a1d1" rx="0"/>
<rect x="507.4" y="340.0" width="6.5" height="9.0" fill="#929dd0" rx="0"/>
<rect x="513.3" y="340.0" width="6.5" height="9.0" fill="#8d99ce" rx="0"/>
<rect x="519.2" y="340.0" width="6.5" height="9.0" fill="#8995cc" rx="0"/>
<rect x="525.1" y="340.0" width="6.5" height="9.0" fill="#8592ca" rx="0"/>
<rect x="531.0" y="340.0" width="6.5" height="9.0" fill="#818ec8" rx="0"/>
<rect x="536.9" y="340.0" width="6.5" height="9.0" fill="#7d8ac7" rx="0"/>
<rect x="542.8" y="340.0" width="6.5" height="9.0" fill="#7886c5" rx="0"/>
<rect x="548.7" y="340.0" width="6.5" height="9.0" fill="#7483c3" rx="0"/>
<rect x="554.6" y="340.0" width="6.5" height="9.0" fill="#707fc1" rx="0"/>
<rect x="560.5" y="340.0" width="6.5" height="9.0" fill="#6c7bbf" rx="0"/>
<rect x="566.4" y="340.0" width="6.5" height="9.0" fill="#6877bd" rx="0"/>
<rect x="572.3" y="340.0" width="6.5" height="9.0" fill="#6374bc" rx="0"/>
<rect x="578.2" y="340.0" width="6.5" height="9.0" fill="#5f70ba" rx="0"/>
<rect x="584.1" y="340.0" width="6.5" height="9.0" fill="#5b6cb8" rx="0"/>
<text x="346.0" y="349.0" font-size="9" fill="#9a9a9a" text-anchor="end">0</text>
<text x="598.0" y="349.0" font-size="9" fill="#9a9a9a" text-anchor="start">55</text>
<text x="472.0" y="376.0" font-size="11" fill="#555" text-anchor="middle">Zielstruktur</text>
</svg>