<svg viewBox="0 0 780 410" xmlns="http://www.w3.org/2000/svg" font-family="Helvetica,Arial,sans-serif">
<rect width="780" height="410" fill="#fff"/>
<line x1="70" y1="330.0" x2="720" y2="330.0" stroke="#e7e7e7"/>
<text x="62" y="333.0" font-size="15" fill="#666" text-anchor="end">0.0</text>
<line x1="70" y1="267.5" x2="720" y2="267.5" stroke="#e7e7e7"/>
<text x="62" y="270.5" font-size="15" fill="#666" text-anchor="end">0.1</text>
<line x1="70" y1="205.0" x2="720" y2="205.0" stroke="#e7e7e7"/>
<text x="62" y="208.0" font-size="15" fill="#666" text-anchor="end">0.2</text>
<line x1="70" y1="142.5" x2="720" y2="142.5" stroke="#e7e7e7"/>
<text x="62" y="145.5" font-size="15" fill="#666" text-anchor="end">0.3</text>
<line x1="70" y1="80.0" x2="720" y2="80.0" stroke="#e7e7e7"/>
<text x="62" y="83.0" font-size="15" fill="#666" text-anchor="end">0.4</text>
<rect x="70" y="80" width="257.3" height="250" fill="#46CDB8" opacity="0.07"/>
<rect x="327.3" y="80" width="392.7" height="250" fill="#E36F9E" opacity="0.07"/>
<text x="199" y="64" font-size="15.2" fill="#2f9e8c" text-anchor="middle">symmetrische Reziprozität</text>
<text x="524" y="64" font-size="15.2" fill="#c45680" text-anchor="middle">einziger Apex (Satellisierung)</text>
<polyline points="70.0,328.9 178.3,329.4 232.5,328.8 286.7,328.6 313.7,329.5 340.8,126.5 367.9,102.5 395.0,101.3 449.2,100.0 557.5,98.5 720.0,96.5" fill="none" stroke="#2b2b2b" stroke-width="2.2"/>
<circle cx="70.0" cy="328.9" r="4.5" fill="#46CDB8"/>
<text x="70.0" y="319.9" font-size="15" fill="#666" text-anchor="middle">0</text>
<circle cx="178.3" cy="329.4" r="4.5" fill="#46CDB8"/>
<text x="178.3" y="320.4" font-size="15" fill="#666" text-anchor="middle">0</text>
<circle cx="232.5" cy="328.8" r="4.5" fill="#46CDB8"/>
<text x="232.5" y="319.8" font-size="15" fill="#666" text-anchor="middle">0</text>
<circle cx="286.7" cy="328.6" r="4.5" fill="#46CDB8"/>
<text x="286.7" y="319.6" font-size="15" fill="#666" text-anchor="middle">0</text>
<circle cx="313.7" cy="329.5" r="4.5" fill="#46CDB8"/>
<text x="313.7" y="320.5" font-size="15" fill="#666" text-anchor="middle">0</text>
<circle cx="340.8" cy="126.5" r="4.5" fill="#E36F9E"/>
<text x="340.8" y="117.5" font-size="15" fill="#666" text-anchor="middle">1</text>
<circle cx="367.9" cy="102.5" r="4.5" fill="#E36F9E"/>
<text x="367.9" y="93.5" font-size="15" fill="#666" text-anchor="middle">1</text>
<circle cx="395.0" cy="101.3" r="4.5" fill="#E36F9E"/>
<text x="395.0" y="92.3" font-size="15" fill="#666" text-anchor="middle">1</text>
<circle cx="449.2" cy="100.0" r="4.5" fill="#E36F9E"/>
<text x="449.2" y="91.0" font-size="15" fill="#666" text-anchor="middle">1</text>
<circle cx="557.5" cy="98.5" r="4.5" fill="#E36F9E"/>
<text x="557.5" y="89.5" font-size="15" fill="#666" text-anchor="middle">1</text>
<circle cx="720.0" cy="96.5" r="4.5" fill="#E36F9E"/>
<text x="720.0" y="87.5" font-size="15" fill="#666" text-anchor="middle">1</text>
<text x="70.0" y="348" font-size="15" fill="#666" text-anchor="middle">1.00</text>
<text x="205.4" y="348" font-size="15" fill="#666" text-anchor="middle">1.25</text>
<text x="340.8" y="348" font-size="15" fill="#666" text-anchor="middle">1.50</text>
<text x="476.2" y="348" font-size="15" fill="#666" text-anchor="middle">1.75</text>
<text x="611.7" y="348" font-size="15" fill="#666" text-anchor="middle">2.00</text>
<text x="26" y="205" font-size="15" fill="#666" transform="rotate(-90 26 205)" text-anchor="middle">Ungleichheit (GINI)</text>
</svg>