<svg viewBox="0 0 760 440" xmlns="http://www.w3.org/2000/svg" font-family="Helvetica,Arial,sans-serif">
<rect width="760" height="440" fill="#fff"/>
<line x1="110" y1="380.0" x2="720" y2="380.0" stroke="#e7e7e7"/>
<text x="104" y="383.0" font-size="15" fill="#666" text-anchor="end">0.0</text>
<line x1="110" y1="280.0" x2="720" y2="280.0" stroke="#e7e7e7"/>
<text x="104" y="283.0" font-size="15" fill="#666" text-anchor="end">0.2</text>
<line x1="110" y1="180.0" x2="720" y2="180.0" stroke="#e7e7e7"/>
<text x="104" y="183.0" font-size="15" fill="#666" text-anchor="end">0.4</text>
<line x1="110" y1="80.0" x2="720" y2="80.0" stroke="#e7e7e7"/>
<text x="104" y="83.0" font-size="15" fill="#666" text-anchor="end">0.6</text>
<line x1="110" y1="247.8" x2="720" y2="247.8" stroke="#9bbf8a" stroke-width="1" stroke-dasharray="4,3"/>
<rect x="140.0" y="247.8" width="72" height="132.2" fill="#9bbf8a" rx="3"/>
<text x="176.0" y="240.8" font-size="15" fill="#2b2b2b" text-anchor="middle">0.264</text>
<text x="176.0" y="394.0" font-size="15" fill="#555" text-anchor="middle">TR</text>
<text x="176.0" y="412.3" font-size="15" fill="#555" text-anchor="middle">symmetrisch</text>
<rect x="240.0" y="299.3" width="72" height="80.7" fill="#8C92EC" rx="3"/>
<text x="276.0" y="292.3" font-size="15" fill="#2b2b2b" text-anchor="middle">0.161</text>
<text x="276.0" y="394.0" font-size="15" fill="#555" text-anchor="middle">White</text>
<text x="276.0" y="412.3" font-size="15" fill="#555" text-anchor="middle">Apex</text>
<rect x="340.0" y="89.6" width="72" height="290.4" fill="#c4c8f2" rx="3"/>
<text x="376.0" y="82.6" font-size="15" fill="#2b2b2b" text-anchor="middle">0.581</text>
<text x="376.0" y="394.0" font-size="15" fill="#555" text-anchor="middle">White</text>
<text x="376.0" y="412.3" font-size="15" fill="#555" text-anchor="middle">unter Mobilität</text>
<rect x="440.0" y="317.0" width="72" height="63.0" fill="#E36F9E" rx="3"/>
<text x="476.0" y="310.0" font-size="15" fill="#2b2b2b" text-anchor="middle">0.126</text>
<text x="476.0" y="394.0" font-size="15" fill="#555" text-anchor="middle">Tilly</text>
<text x="476.0" y="412.3" font-size="15" fill="#555" text-anchor="middle">Apex</text>
<rect x="540.0" y="171.6" width="72" height="208.4" fill="#f0a8c4" rx="3"/>
<text x="576.0" y="164.6" font-size="15" fill="#2b2b2b" text-anchor="middle">0.417</text>
<text x="576.0" y="394.0" font-size="15" fill="#555" text-anchor="middle">Tilly</text>
<text x="576.0" y="412.3" font-size="15" fill="#555" text-anchor="middle">unter Mobilität</text>
<rect x="640.0" y="299.9" width="72" height="80.1" fill="#46CDB8" rx="3"/>
<text x="676.0" y="292.9" font-size="15" fill="#2b2b2b" text-anchor="middle">0.160</text>
<text x="676.0" y="394.0" font-size="15" fill="#555" text-anchor="middle">Bourdieu</text>
<text x="676.0" y="412.3" font-size="15" fill="#555" text-anchor="middle">dialektisiert</text>
</svg>