<svg viewBox="0 0 780 440" xmlns="http://www.w3.org/2000/svg" font-family="Helvetica,Arial,sans-serif">
<rect x="0" y="0" width="780" height="440" fill="#ffffff"/>
<text x="40" y="32" font-size="15" fill="#2b2b2b">Anzahl der Wechsel über aufeinanderfolgende Etappen; 230 Übergänge insgesamt</text>
<rect x="256.0" y="104.0" width="117.0" height="53.0" fill="#f4f4f4" rx="2"/>
<text x="314.5" y="136.5" font-size="16" fill="#9a9a9a" text-anchor="middle">–</text>
<rect x="376.0" y="104.0" width="117.0" height="53.0" fill="#e4e7f3" rx="2"/>
<text x="434.5" y="136.5" font-size="17" fill="#2b2b2b" text-anchor="middle">9</text>
<rect x="496.0" y="104.0" width="117.0" height="53.0" fill="#a9b1da" rx="2"/>
<text x="554.5" y="136.5" font-size="17" fill="#2b2b2b" text-anchor="middle">29</text>
<rect x="616.0" y="104.0" width="117.0" height="53.0" fill="#c3cae5" rx="2"/>
<text x="674.5" y="136.5" font-size="17" fill="#2b2b2b" text-anchor="middle">20</text>
<rect x="256.0" y="160.0" width="117.0" height="53.0" fill="#f6f7fb" rx="2"/>
<text x="314.5" y="192.5" font-size="17" fill="#2b2b2b" text-anchor="middle">3</text>
<rect x="376.0" y="160.0" width="117.0" height="53.0" fill="#f4f4f4" rx="2"/>
<text x="434.5" y="192.5" font-size="16" fill="#9a9a9a" text-anchor="middle">–</text>
<rect x="496.0" y="160.0" width="117.0" height="53.0" fill="#e4e7f3" rx="2"/>
<text x="554.5" y="192.5" font-size="17" fill="#2b2b2b" text-anchor="middle">9</text>
<rect x="616.0" y="160.0" width="117.0" height="53.0" fill="#dee2f1" rx="2"/>
<text x="674.5" y="192.5" font-size="17" fill="#2b2b2b" text-anchor="middle">11</text>
<rect x="256.0" y="216.0" width="117.0" height="53.0" fill="#5b6cb8" rx="2"/>
<text x="314.5" y="248.5" font-size="17" fill="#ffffff" text-anchor="middle" font-weight="bold">55</text>
<rect x="376.0" y="216.0" width="117.0" height="53.0" fill="#a6afd8" rx="2"/>
<text x="434.5" y="248.5" font-size="17" fill="#2b2b2b" text-anchor="middle">30</text>
<rect x="496.0" y="216.0" width="117.0" height="53.0" fill="#f4f4f4" rx="2"/>
<text x="554.5" y="248.5" font-size="16" fill="#9a9a9a" text-anchor="middle">–</text>
<rect x="616.0" y="216.0" width="117.0" height="53.0" fill="#b1badd" rx="2"/>
<text x="674.5" y="248.5" font-size="17" fill="#2b2b2b" text-anchor="middle">26</text>
<rect x="256.0" y="272.0" width="117.0" height="53.0" fill="#c6cce6" rx="2"/>
<text x="314.5" y="304.5" font-size="17" fill="#2b2b2b" text-anchor="middle">19</text>
<rect x="376.0" y="272.0" width="117.0" height="53.0" fill="#e7eaf5" rx="2"/>
<text x="434.5" y="304.5" font-size="17" fill="#2b2b2b" text-anchor="middle">8</text>
<rect x="496.0" y="272.0" width="117.0" height="53.0" fill="#dee2f1" rx="2"/>
<text x="554.5" y="304.5" font-size="17" fill="#2b2b2b" text-anchor="middle">11</text>
<rect x="616.0" y="272.0" width="117.0" height="53.0" fill="#f4f4f4" rx="2"/>
<text x="674.5" y="304.5" font-size="16" fill="#9a9a9a" text-anchor="middle">–</text>
<text x="314.5" y="92.0" font-size="16" fill="#555" text-anchor="middle">nach Kultur</text>
<text x="434.5" y="92.0" font-size="16" fill="#555" text-anchor="middle">nach Politik</text>
<text x="554.5" y="92.0" font-size="16" fill="#555" text-anchor="middle">nach Wirtschaft</text>
<text x="674.5" y="92.0" font-size="16" fill="#555" text-anchor="middle">nach Medien</text>
<text x="244.0" y="136.5" font-size="16" fill="#2b2b2b" text-anchor="end">von A·Kultur</text>
<text x="244.0" y="192.5" font-size="16" fill="#2b2b2b" text-anchor="end">von B·Politik</text>
<text x="244.0" y="248.5" font-size="16" fill="#2b2b2b" text-anchor="end">von C·Wirtschaft</text>
<text x="244.0" y="304.5" font-size="16" fill="#2b2b2b" text-anchor="end">von D·Medien</text>
<rect x="376.0" y="362.0" width="6.6" height="13.0" fill="#ffffff" rx="0"/>
<rect x="382.0" y="362.0" width="6.6" height="13.0" fill="#fbfbfd" rx="0"/>
<rect x="388.0" y="362.0" width="6.6" height="13.0" fill="#f7f7fb" rx="0"/>
<rect x="394.0" y="362.0" width="6.6" height="13.0" fill="#f2f4fa" rx="0"/>
<rect x="400.0" y="362.0" width="6.6" height="13.0" fill="#eef0f8" rx="0"/>
<rect x="406.0" y="362.0" width="6.6" height="13.0" fill="#eaecf6" rx="0"/>
<rect x="412.0" y="362.0" width="6.6" height="13.0" fill="#e6e8f4" rx="0"/>
<rect x="418.0" y="362.0" width="6.6" height="13.0" fill="#e2e5f2" rx="0"/>
<rect x="424.0" y="362.0" width="6.6" height="13.0" fill="#dde1f0" rx="0"/>
<rect x="430.0" y="362.0" width="6.6" height="13.0" fill="#d9ddef" rx="0"/>
<rect x="436.0" y="362.0" width="6.6" height="13.0" fill="#d5d9ed" rx="0"/>
<rect x="442.0" y="362.0" width="6.6" height="13.0" fill="#d1d6eb" rx="0"/>
<rect x="448.0" y="362.0" width="6.6" height="13.0" fill="#cdd2e9" rx="0"/>
<rect x="454.0" y="362.0" width="6.6" height="13.0" fill="#c8cee7" rx="0"/>
<rect x="460.0" y="362.0" width="6.6" height="13.0" fill="#c4cae6" rx="0"/>
<rect x="466.0" y="362.0" width="6.6" height="13.0" fill="#c0c6e4" rx="0"/>
<rect x="472.0" y="362.0" width="6.6" height="13.0" fill="#bcc3e2" rx="0"/>
<rect x="478.0" y="362.0" width="6.6" height="13.0" fill="#b8bfe0" rx="0"/>
<rect x="484.0" y="362.0" width="6.6" height="13.0" fill="#b3bbde" rx="0"/>
<rect x="490.0" y="362.0" width="6.6" height="13.0" fill="#afb7dc" rx="0"/>
<rect x="496.0" y="362.0" width="6.6" height="13.0" fill="#abb4db" rx="0"/>
<rect x="502.0" y="362.0" width="6.6" height="13.0" fill="#a7b0d9" rx="0"/>
<rect x="508.0" y="362.0" width="6.6" height="13.0" fill="#a2acd7" rx="0"/>
<rect x="514.0" y="362.0" width="6.6" height="13.0" fill="#9ea8d5" rx="0"/>
<rect x="520.0" y="362.0" width="6.6" height="13.0" fill="#9aa5d3" rx="0"/>
<rect x="526.0" y="362.0" width="6.6" height="13.0" fill="#96a1d1" rx="0"/>
<rect x="532.0" y="362.0" width="6.6" height="13.0" fill="#929dd0" rx="0"/>
<rect x="538.0" y="362.0" width="6.6" height="13.0" fill="#8d99ce" rx="0"/>
<rect x="544.0" y="362.0" width="6.6" height="13.0" fill="#8995cc" rx="0"/>
<rect x="550.0" y="362.0" width="6.6" height="13.0" fill="#8592ca" rx="0"/>
<rect x="556.0" y="362.0" width="6.6" height="13.0" fill="#818ec8" rx="0"/>
<rect x="562.0" y="362.0" width="6.6" height="13.0" fill="#7d8ac7" rx="0"/>
<rect x="568.0" y="362.0" width="6.6" height="13.0" fill="#7886c5" rx="0"/>
<rect x="574.0" y="362.0" width="6.6" height="13.0" fill="#7483c3" rx="0"/>
<rect x="580.0" y="362.0" width="6.6" height="13.0" fill="#707fc1" rx="0"/>
<rect x="586.0" y="362.0" width="6.6" height="13.0" fill="#6c7bbf" rx="0"/>
<rect x="592.0" y="362.0" width="6.6" height="13.0" fill="#6877bd" rx="0"/>
<rect x="598.0" y="362.0" width="6.6" height="13.0" fill="#6374bc" rx="0"/>
<rect x="604.0" y="362.0" width="6.6" height="13.0" fill="#5f70ba" rx="0"/>
<rect x="610.0" y="362.0" width="6.6" height="13.0" fill="#5b6cb8" rx="0"/>
<text x="366.0" y="375.0" font-size="14" fill="#9a9a9a" text-anchor="end">0</text>
<text x="626.0" y="375.0" font-size="14" fill="#9a9a9a" text-anchor="start">55</text>
<text x="496.0" y="412.0" font-size="16" fill="#555" text-anchor="middle">Zielstruktur</text>
</svg>