<svg viewBox="0 0 780 450" xmlns="http://www.w3.org/2000/svg" font-family="Helvetica,Arial,sans-serif">
<rect x="0" y="0" width="780" height="450" fill="#ffffff"/>
<line x1="92.0" y1="318.0" x2="452.0" y2="318.0" stroke="#e7e7e7" stroke-width="1"/>
<text x="82.0" y="322.9" font-size="14" fill="#9a9a9a" text-anchor="end">0</text>
<line x1="92.0" y1="260.7" x2="452.0" y2="260.7" stroke="#e7e7e7" stroke-width="1"/>
<text x="82.0" y="265.6" font-size="14" fill="#9a9a9a" text-anchor="end">20</text>
<line x1="92.0" y1="203.3" x2="452.0" y2="203.3" stroke="#e7e7e7" stroke-width="1"/>
<text x="82.0" y="208.2" font-size="14" fill="#9a9a9a" text-anchor="end">40</text>
<line x1="92.0" y1="146.0" x2="452.0" y2="146.0" stroke="#e7e7e7" stroke-width="1"/>
<text x="82.0" y="150.9" font-size="14" fill="#9a9a9a" text-anchor="end">60</text>
<line x1="92.0" y1="88.7" x2="452.0" y2="88.7" stroke="#e7e7e7" stroke-width="1"/>
<text x="82.0" y="93.6" font-size="14" fill="#9a9a9a" text-anchor="end">80</text>
<rect x="115.0" y="91.5" width="62.0" height="226.5" fill="#E36F9E" rx="2"/>
<text x="146.0" y="83.5" font-size="17" fill="#2b2b2b" text-anchor="middle" font-weight="bold">79 %</text>
<rect x="187.0" y="295.1" width="62.0" height="22.9" fill="#b9b9b9" rx="2"/>
<text x="218.0" y="287.1" font-size="16" fill="#555" text-anchor="middle">rund 8 %</text>
<text x="182.0" y="346.0" font-size="16" fill="#2b2b2b" text-anchor="middle">Angestelltenstand</text>
<text x="182.0" y="366.0" font-size="14" fill="#555" text-anchor="middle">(HISCLASS I–V)</text>
<rect x="295.0" y="140.3" width="62.0" height="177.7" fill="#E36F9E" rx="2"/>
<text x="326.0" y="132.3" font-size="17" fill="#2b2b2b" text-anchor="middle" font-weight="bold">62 %</text>
<rect x="367.0" y="316.5" width="62.0" height="1.5" fill="#b9b9b9" rx="2"/>
<text x="398.0" y="308.5" font-size="16" fill="#555" text-anchor="middle">0,2 %</text>
<text x="362.0" y="346.0" font-size="16" fill="#2b2b2b" text-anchor="middle">berufliche Elite</text>
<text x="362.0" y="366.0" font-size="14" fill="#555" text-anchor="middle">(HISCLASS I–II)</text>
<rect x="537.1" y="149.0" width="220.9" height="80.0" fill="#ffffff" rx="3"/>
<rect x="537.1" y="149.0" width="220.9" height="80.0" fill="none" stroke="#e7e7e7" rx="3"/>
<rect x="545.1" y="157.0" width="13.0" height="13.0" fill="#E36F9E" rx="2"/>
<text x="567.1" y="169.0" font-size="16" fill="#2b2b2b" text-anchor="start">Kohorte (n = 29)</text>
<rect x="545.1" y="181.0" width="13.0" height="13.0" fill="#b9b9b9" rx="2"/>
<text x="567.1" y="193.0" font-size="16" fill="#2b2b2b" text-anchor="start">englische Arbeiterklasse</text>
<rect x="545.1" y="205.0" width="13.0" height="13.0" fill="#b9b9b9" rx="2"/>
<text x="567.1" y="217.0" font-size="16" fill="#2b2b2b" text-anchor="start">1839–1914 (Miles 1999)</text>
<text x="272.0" y="410.0" font-size="16" fill="#555" text-anchor="middle">Anteil der Männer aus Arbeiterfamilien, die diese Position erreichen (%)</text>
</svg>