<svg viewBox="0 0 780 440" xmlns="http://www.w3.org/2000/svg" font-family="Helvetica,Arial,sans-serif">
<rect width="780" height="440" fill="#fff"/>
<text x="40" y="30" font-size="14" font-family="Georgia,serif" fill="#2b2b2b">Abbildung 6.1 — Kommunikatives Ideal und Kolonialisierung</text>
<text x="40" y="47" font-size="11" fill="#777">Das kommunikative Ideal fällt mit der symmetrischen Reziprozität (TR) zusammen; die Kolonialisierung kippt in einen einzigen Apex</text>
<text x="200" y="78" font-size="12.5" font-family="Georgia,serif" fill="#2b2b2b" text-anchor="middle">Habermas — kommunikatives Ideal</text>
<line x1="70" y1="370.0" x2="304" y2="370.0" stroke="#e7e7e7"/>
<text x="64" y="373.0" font-size="9" fill="#9a9a9a" text-anchor="end">0</text>
<line x1="70" y1="300.0" x2="304" y2="300.0" stroke="#e7e7e7"/>
<text x="64" y="303.0" font-size="9" fill="#9a9a9a" text-anchor="end">25</text>
<line x1="70" y1="230.0" x2="304" y2="230.0" stroke="#e7e7e7"/>
<text x="64" y="233.0" font-size="9" fill="#9a9a9a" text-anchor="end">50</text>
<line x1="70" y1="160.0" x2="304" y2="160.0" stroke="#e7e7e7"/>
<text x="64" y="163.0" font-size="9" fill="#9a9a9a" text-anchor="end">75</text>
<line x1="70" y1="90.0" x2="304" y2="90.0" stroke="#e7e7e7"/>
<text x="64" y="93.0" font-size="9" fill="#9a9a9a" text-anchor="end">100</text>
<rect x="80.0" y="299.8" width="40" height="70.2" fill="#E8B14C" rx="2"/>
<text x="100.0" y="294.8" font-size="10" fill="#2b2b2b" text-anchor="middle">25</text>
<text x="100.0" y="385.0" font-size="8.5" fill="#555" text-anchor="middle">A</text>
<text x="100.0" y="396.0" font-size="7.5" fill="#999" text-anchor="middle">Leb.</text>
<rect x="142.0" y="300.3" width="40" height="69.7" fill="#46CDB8" rx="2"/>
<text x="162.0" y="295.3" font-size="10" fill="#2b2b2b" text-anchor="middle">25</text>
<text x="162.0" y="385.0" font-size="8.5" fill="#555" text-anchor="middle">B</text>
<text x="162.0" y="396.0" font-size="7.5" fill="#999" text-anchor="middle">Sys.</text>
<rect x="204.0" y="299.8" width="40" height="70.2" fill="#E36F9E" rx="2"/>
<text x="224.0" y="294.8" font-size="10" fill="#2b2b2b" text-anchor="middle">25</text>
<text x="224.0" y="385.0" font-size="8.5" fill="#555" text-anchor="middle">C</text>
<text x="224.0" y="396.0" font-size="7.5" fill="#999" text-anchor="middle">Sys.</text>
<rect x="266.0" y="300.2" width="40" height="69.8" fill="#8C92EC" rx="2"/>
<text x="286.0" y="295.2" font-size="10" fill="#2b2b2b" text-anchor="middle">25</text>
<text x="286.0" y="385.0" font-size="8.5" fill="#555" text-anchor="middle">D</text>
<text x="286.0" y="396.0" font-size="7.5" fill="#999" text-anchor="middle">Leb.</text>
<text x="200" y="408" font-size="11" fill="#444" text-anchor="middle">R = 1.00   ·   GINI = 0.002</text>
<text x="570" y="78" font-size="12.5" font-family="Georgia,serif" fill="#2b2b2b" text-anchor="middle">Habermas — Kolonialisierung</text>
<line x1="440" y1="370.0" x2="674" y2="370.0" stroke="#e7e7e7"/>
<text x="434" y="373.0" font-size="9" fill="#9a9a9a" text-anchor="end">0</text>
<line x1="440" y1="300.0" x2="674" y2="300.0" stroke="#e7e7e7"/>
<text x="434" y="303.0" font-size="9" fill="#9a9a9a" text-anchor="end">25</text>
<line x1="440" y1="230.0" x2="674" y2="230.0" stroke="#e7e7e7"/>
<text x="434" y="233.0" font-size="9" fill="#9a9a9a" text-anchor="end">50</text>
<line x1="440" y1="160.0" x2="674" y2="160.0" stroke="#e7e7e7"/>
<text x="434" y="163.0" font-size="9" fill="#9a9a9a" text-anchor="end">75</text>
<line x1="440" y1="90.0" x2="674" y2="90.0" stroke="#e7e7e7"/>
<text x="434" y="93.0" font-size="9" fill="#9a9a9a" text-anchor="end">100</text>
<rect x="450.0" y="335.3" width="40" height="34.7" fill="#E8B14C" rx="2"/>
<text x="470.0" y="330.3" font-size="10" fill="#2b2b2b" text-anchor="middle">12</text>
<text x="470.0" y="385.0" font-size="8.5" fill="#555" text-anchor="middle">A</text>
<text x="470.0" y="396.0" font-size="7.5" fill="#999" text-anchor="middle">Leb.</text>
<rect x="512.0" y="199.0" width="40" height="171.0" fill="#46CDB8" rx="2"/>
<text x="532.0" y="194.0" font-size="10" fill="#2b2b2b" text-anchor="middle">61</text>
<text x="532.0" y="385.0" font-size="8.5" fill="#555" text-anchor="middle">B</text>
<text x="532.0" y="396.0" font-size="7.5" fill="#999" text-anchor="middle">Sys.</text>
<rect x="574.0" y="330.8" width="40" height="39.2" fill="#E36F9E" rx="2"/>
<text x="594.0" y="325.8" font-size="10" fill="#2b2b2b" text-anchor="middle">14</text>
<text x="594.0" y="385.0" font-size="8.5" fill="#555" text-anchor="middle">C</text>
<text x="594.0" y="396.0" font-size="7.5" fill="#999" text-anchor="middle">Sys.</text>
<rect x="636.0" y="334.9" width="40" height="35.1" fill="#8C92EC" rx="2"/>
<text x="656.0" y="329.9" font-size="10" fill="#2b2b2b" text-anchor="middle">13</text>
<text x="656.0" y="385.0" font-size="8.5" fill="#555" text-anchor="middle">D</text>
<text x="656.0" y="396.0" font-size="7.5" fill="#999" text-anchor="middle">Leb.</text>
<text x="570" y="408" font-size="11" fill="#444" text-anchor="middle">R = 0.32   ·   GINI = 0.369</text>
</svg>