<svg viewBox="0 0 780 430" xmlns="http://www.w3.org/2000/svg" font-family="Helvetica,Arial,sans-serif">
<rect x="0" y="0" width="780" height="430" fill="#ffffff"/>
<text x="40" y="47" font-size="11" fill="#777">Zusammensetzung der Akteurkategorien je Relationsstruktur, gewichtet nach den Sequenzgrößen</text>
<line x1="100.0" y1="320.0" x2="660.0" y2="320.0" stroke="#e7e7e7" stroke-width="1"/>
<text x="92.0" y="323.0" font-size="9" fill="#9a9a9a" text-anchor="end">0,00</text>
<line x1="100.0" y1="262.5" x2="660.0" y2="262.5" stroke="#e7e7e7" stroke-width="1"/>
<text x="92.0" y="265.5" font-size="9" fill="#9a9a9a" text-anchor="end">0,25</text>
<line x1="100.0" y1="205.0" x2="660.0" y2="205.0" stroke="#e7e7e7" stroke-width="1"/>
<text x="92.0" y="208.0" font-size="9" fill="#9a9a9a" text-anchor="end">0,50</text>
<line x1="100.0" y1="147.5" x2="660.0" y2="147.5" stroke="#e7e7e7" stroke-width="1"/>
<text x="92.0" y="150.5" font-size="9" fill="#9a9a9a" text-anchor="end">0,75</text>
<line x1="100.0" y1="90.0" x2="660.0" y2="90.0" stroke="#e7e7e7" stroke-width="1"/>
<text x="92.0" y="93.0" font-size="9" fill="#9a9a9a" text-anchor="end">1,00</text>
<rect x="132.0" y="221.9" width="76.0" height="98.1" fill="#5B6CB8" rx="0"/>
<text x="170.0" y="275.0" font-size="10" fill="#ffffff" text-anchor="middle">43 %</text>
<rect x="132.0" y="196.5" width="76.0" height="25.4" fill="#46CDB8" rx="0"/>
<text x="170.0" y="213.2" font-size="10" fill="#2b2b2b" text-anchor="middle">11 %</text>
<rect x="132.0" y="176.2" width="76.0" height="20.3" fill="#E8B14C" rx="0"/>
<rect x="132.0" y="90.0" width="76.0" height="86.2" fill="#E36F9E" rx="0"/>
<text x="170.0" y="137.1" font-size="10" fill="#ffffff" text-anchor="middle">38 %</text>
<text x="170.0" y="340.0" font-size="10.5" fill="#555" text-anchor="middle">A·Kultur</text>
<rect x="272.0" y="99.2" width="76.0" height="220.8" fill="#5B6CB8" rx="0"/>
<text x="310.0" y="213.6" font-size="10" fill="#ffffff" text-anchor="middle">96 %</text>
<rect x="272.0" y="94.6" width="76.0" height="4.6" fill="#46CDB8" rx="0"/>
<rect x="272.0" y="90.0" width="76.0" height="4.6" fill="#E36F9E" rx="0"/>
<text x="310.0" y="340.0" font-size="10.5" fill="#555" text-anchor="middle">B·Politik</text>
<rect x="412.0" y="301.8" width="76.0" height="18.2" fill="#5B6CB8" rx="0"/>
<rect x="412.0" y="283.6" width="76.0" height="18.2" fill="#46CDB8" rx="0"/>
<rect x="412.0" y="243.7" width="76.0" height="39.9" fill="#E8B14C" rx="0"/>
<text x="450.0" y="267.6" font-size="10" fill="#2b2b2b" text-anchor="middle">17 %</text>
<rect x="412.0" y="90.0" width="76.0" height="153.7" fill="#E36F9E" rx="0"/>
<text x="450.0" y="170.9" font-size="10" fill="#ffffff" text-anchor="middle">67 %</text>
<text x="450.0" y="340.0" font-size="10.5" fill="#555" text-anchor="middle">C·Wirtschaft</text>
<rect x="552.0" y="209.6" width="76.0" height="110.4" fill="#5B6CB8" rx="0"/>
<text x="590.0" y="268.8" font-size="10" fill="#ffffff" text-anchor="middle">48 %</text>
<rect x="552.0" y="191.2" width="76.0" height="18.4" fill="#46CDB8" rx="0"/>
<rect x="552.0" y="123.7" width="76.0" height="67.5" fill="#E8B14C" rx="0"/>
<text x="590.0" y="161.5" font-size="10" fill="#2b2b2b" text-anchor="middle">29 %</text>
<rect x="552.0" y="90.0" width="76.0" height="33.7" fill="#E36F9E" rx="0"/>
<text x="590.0" y="110.9" font-size="10" fill="#ffffff" text-anchor="middle">15 %</text>
<text x="590.0" y="340.0" font-size="10.5" fill="#555" text-anchor="middle">D·Medien</text>
<rect x="100.0" y="55.0" width="11.0" height="11.0" fill="#5B6CB8" rx="2"/>
<text x="116.0" y="64.0" font-size="10.5" fill="#2b2b2b" text-anchor="start">Etablierte</text>
<rect x="192.6" y="55.0" width="11.0" height="11.0" fill="#46CDB8" rx="2"/>
<text x="208.6" y="64.0" font-size="10.5" fill="#2b2b2b" text-anchor="start">Anwärter</text>
<rect x="274.3" y="55.0" width="11.0" height="11.0" fill="#E8B14C" rx="2"/>
<text x="290.3" y="64.0" font-size="10.5" fill="#2b2b2b" text-anchor="start">Bewahrende</text>
<rect x="366.9" y="55.0" width="11.0" height="11.0" fill="#E36F9E" rx="2"/>
<text x="382.9" y="64.0" font-size="10.5" fill="#2b2b2b" text-anchor="start">Enttäuschte</text>
<text x="380.0" y="366.0" font-size="11" fill="#555" text-anchor="middle">Anteil an der Relationsstruktur</text>
</svg>